<svg width="48" height="44" viewBox="0 0 48 44" fill="none" xmlns="http://www.w3.org/2000/svg">
<path fill-rule="evenodd" clip-rule="evenodd" d="M40.3094 26.3754C41.394 23.9921 42 21.332 42 18.5263C42 8.29451 33.9411 0 24 0C14.0589 0 6 8.29451 6 18.5263C6 21.332 6.60598 23.9921 7.69059 26.3754C11.0867 34.3491 18.852 40.762 24 44C29.148 40.762 36.9133 34.3491 40.3094 26.3754Z" fill="#6E767E"/>
<path fill-rule="evenodd" clip-rule="evenodd" d="M21.0001 0.256205C29.5132 1.72623 36 9.3466 36 18.5264C36 21.3321 35.394 23.9921 34.3094 26.3754C31.5259 32.9109 25.807 38.398 21 41.9476C16.193 38.398 10.4741 32.9109 7.69058 26.3754C6.60598 23.9921 5.99999 21.3321 5.99999 18.5264C5.99999 9.34658 12.4869 1.72617 21.0001 0.256205ZM19.6326 42.9236C14.7788 39.2673 9.08068 33.7085 6.22617 27.0203C5.05342 24.4367 4.39999 21.5573 4.39999 18.5264C4.39999 10.3246 9.19186 3.22973 16.0941 0.102661C7.04894 1.0824 0 8.95712 0 18.5264C0 21.3321 0.605981 23.9921 1.69059 26.3754C5.08668 34.3491 12.852 40.7621 18 44C18.5199 43.673 19.0665 43.3137 19.6326 42.9236Z" fill="#6E767E"/>
</svg>
