<svg width="70" height="61" viewBox="0 0 70 61" fill="none" xmlns="http://www.w3.org/2000/svg">
<g filter="url(#filter0_d)">
<path d="M19 25.6667C19 14.0688 28.402 4.66675 40 4.66675C51.598 4.66675 61 14.0688 61 25.6667C61 37.2647 51.598 46.6667 40 46.6667C28.402 46.6667 19 37.2647 19 25.6667Z" fill="#1A2F43"/>
<path d="M33 22.6667L40 16.6667L47 22.6667V32.6667H42V28.1667H38V32.6667H33V22.6667Z" stroke="white" stroke-width="1.6" stroke-linejoin="round"/>
</g>
<g filter="url(#filter1_d)">
<path fill-rule="evenodd" clip-rule="evenodd" d="M16.6667 16.6667C13.7203 19.8049 11.333 23.0485 9.6666 25.6979L9.66651 25.6979C11.333 28.3474 13.7202 31.591 16.6667 34.7292L16.6667 16.6667Z" fill="#1A2F43"/>
</g>
<defs>
<filter id="filter0_d" x="10" y="0.666748" width="60" height="60" filterUnits="userSpaceOnUse" color-interpolation-filters="sRGB">
<feFlood flood-opacity="0" result="BackgroundImageFix"/>
<feColorMatrix in="SourceAlpha" type="matrix" values="0 0 0 0 0 0 0 0 0 0 0 0 0 0 0 0 0 0 127 0"/>
<feOffset dy="5"/>
<feGaussianBlur stdDeviation="4.5"/>
<feColorMatrix type="matrix" values="0 0 0 0 0.180392 0 0 0 0 0.27451 0 0 0 0 0.317647 0 0 0 0.15 0"/>
<feBlend mode="normal" in2="BackgroundImageFix" result="effect1_dropShadow"/>
<feBlend mode="normal" in="SourceGraphic" in2="effect1_dropShadow" result="shape"/>
</filter>
<filter id="filter1_d" x="0.666504" y="12.6667" width="25.0001" height="36.0625" filterUnits="userSpaceOnUse" color-interpolation-filters="sRGB">
<feFlood flood-opacity="0" result="BackgroundImageFix"/>
<feColorMatrix in="SourceAlpha" type="matrix" values="0 0 0 0 0 0 0 0 0 0 0 0 0 0 0 0 0 0 127 0"/>
<feOffset dy="5"/>
<feGaussianBlur stdDeviation="4.5"/>
<feColorMatrix type="matrix" values="0 0 0 0 0.180392 0 0 0 0 0.27451 0 0 0 0 0.317647 0 0 0 0.15 0"/>
<feBlend mode="normal" in2="BackgroundImageFix" result="effect1_dropShadow"/>
<feBlend mode="normal" in="SourceGraphic" in2="effect1_dropShadow" result="shape"/>
</filter>
</defs>
</svg>
