<svg width="61" height="70" viewBox="0 0 61 70" fill="none" xmlns="http://www.w3.org/2000/svg">
<g filter="url(#filter0_d)">
<path d="M9.66661 35C9.66661 23.402 19.0686 14 30.6666 14C42.2646 14 51.6666 23.402 51.6666 35C51.6666 46.598 42.2646 56 30.6666 56C19.0686 56 9.66661 46.598 9.66661 35Z" fill="#1A2F43"/>
<path d="M23.6666 32L30.6666 26L37.6666 32V42H32.6666V37.5H28.6666V42H23.6666V32Z" stroke="white" stroke-width="1.6" stroke-linejoin="round"/>
</g>
<g filter="url(#filter1_d)">
<path fill-rule="evenodd" clip-rule="evenodd" d="M21.6666 11.6666C24.8048 8.72023 28.0484 6.33299 30.6978 4.66656V4.66648C33.3472 6.33292 36.5909 8.72019 39.7291 11.6666H21.6666Z" fill="#1A2F43"/>
</g>
<defs>
<filter id="filter0_d" x="0.666611" y="10" width="60" height="60" filterUnits="userSpaceOnUse" color-interpolation-filters="sRGB">
<feFlood flood-opacity="0" result="BackgroundImageFix"/>
<feColorMatrix in="SourceAlpha" type="matrix" values="0 0 0 0 0 0 0 0 0 0 0 0 0 0 0 0 0 0 127 0"/>
<feOffset dy="5"/>
<feGaussianBlur stdDeviation="4.5"/>
<feColorMatrix type="matrix" values="0 0 0 0 0.180392 0 0 0 0 0.27451 0 0 0 0 0.317647 0 0 0 0.15 0"/>
<feBlend mode="normal" in2="BackgroundImageFix" result="effect1_dropShadow"/>
<feBlend mode="normal" in="SourceGraphic" in2="effect1_dropShadow" result="shape"/>
</filter>
<filter id="filter1_d" x="12.6666" y="0.666504" width="36.0625" height="25.0001" filterUnits="userSpaceOnUse" color-interpolation-filters="sRGB">
<feFlood flood-opacity="0" result="BackgroundImageFix"/>
<feColorMatrix in="SourceAlpha" type="matrix" values="0 0 0 0 0 0 0 0 0 0 0 0 0 0 0 0 0 0 127 0"/>
<feOffset dy="5"/>
<feGaussianBlur stdDeviation="4.5"/>
<feColorMatrix type="matrix" values="0 0 0 0 0.180392 0 0 0 0 0.27451 0 0 0 0 0.317647 0 0 0 0.15 0"/>
<feBlend mode="normal" in2="BackgroundImageFix" result="effect1_dropShadow"/>
<feBlend mode="normal" in="SourceGraphic" in2="effect1_dropShadow" result="shape"/>
</filter>
</defs>
</svg>
