<svg width="24" height="24" viewBox="0 0 24 24" fill="none" xmlns="http://www.w3.org/2000/svg">
<path d="M16.5 19.5C17.1875 20.1562 18.0156 20.4844 18.9844 20.4844C19.9531 20.4844 20.7812 20.1562 21.4688 19.5C22.1562 18.8125 22.5 17.9844 22.5 17.0156C22.5 16.0469 22.1562 15.2188 21.4688 14.5312C20.7812 13.8438 19.9531 13.5 18.9844 13.5C18.0156 13.5 17.1875 13.8438 16.5 14.5312C15.8438 15.2188 15.5156 16.0469 15.5156 17.0156C15.5156 17.9844 15.8438 18.8125 16.5 19.5ZM15.4219 13.4531C16.3906 12.4844 17.5781 12 18.9844 12C20.3906 12 21.5781 12.4844 22.5469 13.4531C23.5156 14.4219 24 15.6094 24 17.0156C24 18.4219 23.5156 19.6094 22.5469 20.5781C21.5781 21.5156 20.3906 21.9844 18.9844 21.9844C17.5781 21.9844 16.3906 21.5156 15.4219 20.5781C14.4844 19.6094 14.0156 18.4219 14.0156 17.0156C14.0156 15.6094 14.4844 14.4219 15.4219 13.4531ZM10.7812 10.5L12.9844 12.7969V18.9844H11.0156V14.0156L7.78125 11.2031C7.40625 10.9531 7.21875 10.4844 7.21875 9.79688C7.21875 9.23438 7.40625 8.76562 7.78125 8.39062L10.5938 5.57812C10.8438 5.20312 11.3125 5.01562 12 5.01562C12.5938 5.01562 13.125 5.20312 13.5938 5.57812L15.5156 7.5C16.5156 8.5 17.7031 9 19.0781 9V11.0156C17.1094 11.0156 15.4219 10.3125 14.0156 8.90625L13.2188 8.10938L10.7812 10.5ZM2.53125 19.5C3.21875 20.1562 4.04688 20.4844 5.01562 20.4844C5.98438 20.4844 6.79688 20.1562 7.45312 19.5C8.14062 18.8125 8.48438 17.9844 8.48438 17.0156C8.48438 16.0469 8.14062 15.2188 7.45312 14.5312C6.79688 13.8438 5.98438 13.5 5.01562 13.5C4.04688 13.5 3.21875 13.8438 2.53125 14.5312C1.84375 15.2188 1.5 16.0469 1.5 17.0156C1.5 17.9844 1.84375 18.8125 2.53125 19.5ZM1.45312 13.4531C2.42188 12.4844 3.60938 12 5.01562 12C6.42188 12 7.59375 12.4844 8.53125 13.4531C9.5 14.4219 9.98438 15.6094 9.98438 17.0156C9.98438 18.4219 9.5 19.6094 8.53125 20.5781C7.59375 21.5156 6.42188 21.9844 5.01562 21.9844C3.60938 21.9844 2.42188 21.5156 1.45312 20.5781C0.484375 19.6094 0 18.4219 0 17.0156C0 15.6094 0.484375 14.4219 1.45312 13.4531ZM16.875 4.92188C16.5 5.29688 16.0469 5.48438 15.5156 5.48438C14.9844 5.48438 14.5156 5.29688 14.1094 4.92188C13.7031 4.51562 13.5 4.04688 13.5 3.51562C13.5 2.98438 13.7031 2.51562 14.1094 2.10938C14.5156 1.70312 14.9844 1.5 15.5156 1.5C16.0469 1.5 16.5 1.70312 16.875 2.10938C17.2812 2.51562 17.4844 2.98438 17.4844 3.51562C17.4844 4.04688 17.2812 4.51562 16.875 4.92188Z" fill="#1A2F43"/>
</svg>
