<svg width="24" height="24" viewBox="0 0 24 24" fill="none" xmlns="http://www.w3.org/2000/svg">
<path d="M5.01562 11.0156H18.9844L17.4844 6.51562H6.51562L5.01562 11.0156ZM16.4062 15.5625C16.7188 15.8438 17.0781 15.9844 17.4844 15.9844C17.8906 15.9844 18.2344 15.8438 18.5156 15.5625C18.8281 15.25 18.9844 14.8906 18.9844 14.4844C18.9844 14.0781 18.8281 13.7344 18.5156 13.4531C18.2344 13.1406 17.8906 12.9844 17.4844 12.9844C17.0781 12.9844 16.7188 13.1406 16.4062 13.4531C16.125 13.7344 15.9844 14.0781 15.9844 14.4844C15.9844 14.8906 16.125 15.25 16.4062 15.5625ZM5.4375 15.5625C5.75 15.8438 6.10938 15.9844 6.51562 15.9844C6.92188 15.9844 7.26562 15.8438 7.54688 15.5625C7.85938 15.25 8.01562 14.8906 8.01562 14.4844C8.01562 14.0781 7.85938 13.7344 7.54688 13.4531C7.26562 13.1406 6.92188 12.9844 6.51562 12.9844C6.10938 12.9844 5.75 13.1406 5.4375 13.4531C5.15625 13.7344 5.01562 14.0781 5.01562 14.4844C5.01562 14.8906 5.15625 15.25 5.4375 15.5625ZM18.9375 6L21 12V20.0156C21 20.2969 20.9062 20.5312 20.7188 20.7188C20.5312 20.9062 20.2969 21 20.0156 21H18.9844C18.7031 21 18.4688 20.9062 18.2812 20.7188C18.0938 20.5312 18 20.2969 18 20.0156V18.9844H6V20.0156C6 20.2969 5.90625 20.5312 5.71875 20.7188C5.53125 20.9062 5.29688 21 5.01562 21H3.98438C3.70312 21 3.46875 20.9062 3.28125 20.7188C3.09375 20.5312 3 20.2969 3 20.0156V12L5.0625 6C5.25 5.34375 5.73438 5.01562 6.51562 5.01562H17.4844C18.2656 5.01562 18.75 5.34375 18.9375 6Z" fill="#1A2F43"/>
</svg>
