<svg class="icon" style="width: 1em; height: 1em;vertical-align: middle;fill: white;overflow: hidden;" viewBox="0 0 1024 1024" version="1.1" xmlns="http://www.w3.org/2000/svg"><path d="M584.319739 510.60714l424.530581-422.236674c20.063427-20.013878 20.149677-52.409348 0.178007-72.423226-20.021219-20.201061-52.321262-20.201061-72.386523-0.266093L512.069015 438.090323 91.115094 15.897692C71.229858-4.031771 38.749423-4.202437 18.735911 15.811441-1.287056 35.739068-1.32935 68.176746 18.649844 88.190624L439.423739 510.341047 15.15738 932.392189C-4.905698 952.327524-4.992426 984.714001 14.935165 1004.820737 24.964511 1014.943362 38.046937 1019.933325 51.21543 1019.933325c13.075269 0 26.158429-4.989963 36.143346-14.932563L511.760714 582.850523 936.469302 1008.886017c10.028961 10.122589 23.11157 15.111833 36.28043 15.111833 13.075269 0 26.157878-4.989244 36.100588-14.931898 20.013878-20.021421 20.063427-52.409366 0.086251-72.430768l-424.616832-426.028043 0 0z" /></svg>