<svg width="17" height="17" viewBox="0 0 17 17" fill="none" xmlns="http://www.w3.org/2000/svg">
<path d="M14.8307 11.9457L12.5142 9.62368C12.0528 9.16308 11.2887 9.17708 10.8112 9.65581L9.64415 10.8253C9.57041 10.7845 9.49409 10.742 9.41385 10.6969C8.67686 10.2876 7.66816 9.7266 6.60671 8.66197C5.54212 7.5951 4.9819 6.58256 4.57229 5.84342C4.52906 5.76511 4.48765 5.68961 4.44675 5.61792L5.23003 4.83403L5.61512 4.4476C6.09333 3.96817 6.10652 3.20255 5.64619 2.74062L3.32967 0.418337C2.86934 -0.0429495 2.12831 -0.0406385 1.62201 0.418335C1.11571 0.877308 1.18439 0.794791 0.973812 1.10858C0.763236 1.42237 0.59237 1.72263 0.453668 2.07741C0.328179 2.40887 0.250049 2.72516 0.214324 3.0421C-0.0915566 5.58366 1.06724 7.90647 4.21207 11.0585C8.55917 15.4151 12.0624 15.086 12.2135 15.0699C12.5426 15.0305 12.8581 14.9517 13.1787 14.8269C13.5231 14.692 13.845 14.509 14.1242 14.29C14.4034 14.0711 14.7999 13.6536 14.7999 13.6536C15.2771 13.1742 15.2908 12.4084 14.8307 11.9457Z" fill="#1A2F43"/>
</svg>
