<svg width="24" height="24" viewBox="0 0 24 24" fill="none" xmlns="http://www.w3.org/2000/svg">
<path d="M14.0156 14.4844L17.4844 11.0156L14.0156 7.5V9.98438H9C8.71875 9.98438 8.48438 10.0938 8.29688 10.3125C8.10938 10.5 8.01562 10.7344 8.01562 11.0156V15H9.98438V12H14.0156V14.4844ZM21.7031 11.2969C22.1406 11.7969 22.1406 12.2656 21.7031 12.7031L12.7031 21.7031C12.5156 21.8906 12.2812 21.9844 12 21.9844C11.7188 21.9844 11.4844 21.8906 11.2969 21.7031L2.29688 12.7031C2.10938 12.5156 2.01562 12.2812 2.01562 12C2.01562 11.7188 2.10938 11.4844 2.29688 11.2969L11.2969 2.29688C11.4844 2.10938 11.7188 2.01562 12 2.01562C12.2812 2.01562 12.5156 2.10938 12.7031 2.29688L21.7031 11.2969Z" fill="#1A2F43"/>
</svg>
