<svg width="24" height="24" viewBox="0 0 24 24" fill="none" xmlns="http://www.w3.org/2000/svg">
<path d="M9.79688 8.90625L6.98438 23.0156H9.09375L10.9219 15L12.9844 17.0156V23.0156H15V15.5156L12.8906 13.5L13.5 10.5C14.9375 12.1562 16.7656 12.9844 18.9844 12.9844V11.0156C17.0469 11.0156 15.625 10.2031 14.7188 8.57812L13.6875 6.98438C13.2188 6.32812 12.6562 6 12 6C11.9062 6 11.7656 6.01562 11.5781 6.04688C11.4219 6.07812 11.2969 6.09375 11.2031 6.09375L6 8.29688V12.9844H8.01562V9.60938L9.79688 8.90625ZM14.9062 4.92188C14.5 5.29688 14.0312 5.48438 13.5 5.48438C12.9688 5.48438 12.5 5.29688 12.0938 4.92188C11.6875 4.51562 11.4844 4.04688 11.4844 3.51562C11.4844 2.98438 11.6875 2.51562 12.0938 2.10938C12.5 1.70312 12.9688 1.5 13.5 1.5C14.0312 1.5 14.5 1.70312 14.9062 2.10938C15.3125 2.51562 15.5156 2.98438 15.5156 3.51562C15.5156 4.04688 15.3125 4.51562 14.9062 4.92188Z" fill="#1A2F43"/>
</svg>
